<?xml version="1.0" encoding="UTF-8"?>
<svg version="1.1" xmlns="http://www.w3.org/2000/svg" width="32" height="32">
<path d="M0 0 C10.56 0 21.12 0 32 0 C32 10.56 32 21.12 32 32 C21.44 32 10.88 32 0 32 C0 21.44 0 10.88 0 0 Z " fill="#259EEE" transform="translate(0,0)"/>
<path d="M0 0 C7.59 0 15.18 0 23 0 C23 10.56 23 21.12 23 32 C17.06 32 11.12 32 5 32 C6.65 30.68 8.3 29.36 10 28 C10.495 26.989375 10.99 25.97875 11.5 24.9375 C13.20951679 21.58969628 14.6730615 20.61851062 18 19 C17.67 18.67 17.34 18.34 17 18 C16.01 18.33 15.02 18.66 14 19 C14.33 14.05 14.66 9.1 15 4 C9.32324068 3.61564954 9.32324068 3.61564954 4 5 C4.33 5.66 4.66 6.32 5 7 C4.01 7 3.02 7 2 7 C2 5.35 2 3.7 2 2 C1.34 2 0.68 2 0 2 C0 1.34 0 0.68 0 0 Z " fill="#249EEE" transform="translate(9,0)"/>
<path d="M0 0 C0.79148437 0.02578125 1.58296875 0.0515625 2.3984375 0.078125 C3.59339844 0.10132813 3.59339844 0.10132813 4.8125 0.125 C6.7734375 0.328125 6.7734375 0.328125 7.7734375 1.328125 C7.68312176 3.68507454 7.52655622 6.03966082 7.3359375 8.390625 C7.23410156 9.68097656 7.13226563 10.97132812 7.02734375 12.30078125 C6.94355469 13.29980469 6.85976563 14.29882812 6.7734375 15.328125 C8.0934375 14.668125 9.4134375 14.008125 10.7734375 13.328125 C10.5859375 15.140625 10.5859375 15.140625 9.7734375 17.328125 C8.9896875 17.781875 8.2059375 18.235625 7.3984375 18.703125 C4.10133893 20.74418602 3.35674024 22.85993805 1.7734375 26.328125 C-0.98906286 27.70937518 -3.17387349 27.51891806 -6.2265625 27.328125 C-6.8865625 26.668125 -7.5465625 26.008125 -8.2265625 25.328125 C-8.2265625 23.390625 -8.2265625 23.390625 -7.2265625 21.328125 C-2.19084821 18.328125 -2.19084821 18.328125 0.7734375 18.328125 C0.82242187 17.67585938 0.87140625 17.02359375 0.921875 16.3515625 C1.34585979 11.39532647 1.93009323 6.99793049 3.7734375 2.328125 C-0.6815625 2.823125 -0.6815625 2.823125 -5.2265625 3.328125 C-2.2265625 0.328125 -2.2265625 0.328125 0 0 Z " fill="#E4F3FC" transform="translate(17.2265625,2.671875)"/>
<path d="M0 0 C0.66 0 1.32 0 2 0 C1.41523944 7.09406894 0.36766005 14.01563899 -1 21 C-2.32 20.67 -3.64 20.34 -5 20 C-5.35879261 13.541733 -4.44048272 8.02284268 -2 2 C-1.34 1.34 -0.68 0.68 0 0 Z " fill="#EBF5FD" transform="translate(9,2)"/>
</svg>
